<svg version="1.1" id="Layer_1" xmlns="http://www.w3.org/2000/svg" xmlns:xlink="http://www.w3.org/1999/xlink" x="0px" y="0px"
	 width="100%" viewBox="0 0 464 256" enable-background="new 0 0 464 256" xml:space="preserve">
<path fill="#000000" opacity="1.000000" stroke="none" 
	d="
M297.962860,223.046417 
	C303.683777,232.295319 311.837067,234.207825 321.564087,232.300369 
	C336.577332,229.356323 349.227203,221.905380 360.423279,211.840698 
	C368.360779,204.705307 375.716614,196.972870 381.808624,188.143631 
	C383.685516,185.423447 385.675873,183.210648 389.496185,183.790085 
	C391.371460,184.074539 393.165710,183.178284 394.417114,181.751694 
	C400.683014,174.608521 407.043701,167.500854 409.997375,158.177383 
	C412.030640,151.759247 410.483795,146.263016 405.997345,143.488022 
	C401.433472,140.665131 396.378174,141.794540 391.268707,146.730133 
	C389.372223,148.562073 387.542725,150.964539 384.438965,149.406097 
	C381.450043,147.905319 382.592346,145.032959 382.808594,142.687851 
	C383.235870,138.054047 384.881622,133.612411 385.028442,128.901474 
	C385.151489,124.953880 383.891754,122.522110 379.557343,122.193802 
	C374.885620,121.839951 372.588898,118.917625 371.719940,114.477890 
	C370.361267,107.536110 370.111572,100.585732 371.405914,93.637962 
	C372.123535,89.785950 370.780914,88.595314 367.139801,89.729904 
	C363.806641,90.768517 360.548401,92.050827 356.970917,92.127586 
	C353.791229,92.195808 350.889069,91.577393 349.102203,88.746902 
	C347.173126,85.691132 344.555389,85.810081 341.667633,86.682526 
	C336.088196,88.368164 330.471191,89.949371 324.961761,91.841820 
	C317.950775,94.250046 310.833191,95.490417 303.393097,95.334244 
	C291.995239,95.094994 290.728363,93.796440 292.476624,83.030670 
	C286.857513,79.555046 286.609772,78.964218 289.880219,72.612259 
	C292.957062,66.636269 296.741486,61.347069 304.679230,60.397472 
	C304.611816,64.974159 299.090118,67.706680 301.903961,72.202850 
	C302.361847,72.316673 302.782349,72.567444 302.978271,72.448448 
	C307.480286,69.713799 311.141022,65.738113 317.243134,65.641785 
	C319.751160,65.602180 322.745270,62.845123 323.517517,59.477005 
	C321.967896,57.705204 320.168610,58.093849 318.709076,58.642097 
	C314.499451,60.223423 311.960907,59.684734 312.943878,54.535908 
	C301.830383,52.990288 291.420532,59.880669 286.597321,71.651955 
	C284.944031,75.686966 283.832611,79.877769 284.568695,84.320129 
	C284.817444,85.821526 285.320190,87.541786 283.271942,87.996323 
	C281.480042,88.393982 280.651031,86.809364 279.960175,85.488098 
	C277.369781,80.533714 277.067352,75.221443 278.191620,69.905449 
	C281.450104,54.497887 291.433563,45.113712 306.409302,42.397049 
	C318.032928,40.288475 329.559540,37.771641 341.153625,35.564102 
	C351.804443,33.536167 362.020905,35.595325 371.938477,39.485477 
	C373.770111,40.203941 376.023224,41.043400 376.997223,42.535156 
	C380.290924,47.579689 385.377655,48.818108 390.597351,50.672749 
	C401.248260,54.457214 406.786743,63.544746 411.302582,73.205688 
	C413.628052,78.180725 415.342987,83.358337 415.548065,89.014854 
	C415.647980,91.771210 416.431152,94.705070 417.661682,97.182777 
	C422.703033,107.333374 421.914825,117.600174 418.302063,127.758659 
	C415.617523,135.307037 414.461945,142.825089 415.465424,150.784561 
	C416.151855,156.228958 414.655304,161.347839 412.003326,166.130844 
	C408.180664,173.025269 403.282990,179.114105 397.979523,184.899124 
	C395.980469,187.079727 393.448212,188.836044 390.551880,188.379333 
	C386.576324,187.752441 384.971680,189.960114 383.050476,192.687775 
	C371.990143,208.390732 358.825958,221.855423 341.807251,231.244293 
	C333.496002,235.829391 324.806610,238.810074 315.258789,239.085373 
	C308.256226,239.287308 302.337494,236.789307 298.340515,231.123047 
	C287.858948,216.263947 278.071808,201.004013 272.770599,183.325958 
	C270.693970,176.401016 270.812561,169.552414 272.328003,162.626358 
	C272.738770,160.748917 273.005310,158.688553 276.521057,156.967331 
	C274.584076,182.325699 285.301239,202.845032 297.962860,223.046417 
M404.493713,108.973969 
	C404.947388,102.865868 401.652313,98.025917 396.665070,97.474922 
	C391.918884,96.950569 387.457550,100.160828 386.515106,105.405258 
	C390.871460,104.474510 389.936432,108.521156 390.901672,110.090736 
	C394.064545,111.686554 396.999847,109.037468 399.581207,111.030708 
	C399.067017,113.499825 396.159302,113.202881 395.277954,115.503494 
	C401.395782,117.600090 395.143799,121.242073 396.203827,124.149651 
	C400.555267,123.824608 407.570618,117.054390 407.649628,113.378395 
	C407.693848,111.322594 406.299530,110.495888 404.493713,108.973969 
M346.024811,56.425110 
	C339.870514,59.437847 334.843903,63.398251 333.013245,71.715645 
	C338.376007,68.638275 340.939514,63.342587 347.041809,62.983471 
	C347.093231,65.793442 348.110168,67.884460 351.221130,66.202156 
	C353.234039,65.113625 357.583588,63.885994 355.909088,61.751945 
	C353.437927,58.602596 354.812836,56.816284 356.460571,54.387039 
	C352.664642,53.998760 349.715240,55.123444 346.024811,56.425110 
M388.093811,86.734520 
	C386.480713,87.347145 384.834045,88.128304 385.624969,90.220001 
	C386.333405,92.093483 388.052277,91.417358 389.471344,91.138939 
	C391.612915,90.718788 393.911865,90.613815 395.551361,88.593208 
	C393.333282,87.076012 391.085815,86.755379 388.093811,86.734520 
z"/>
<path fill="#000000" opacity="1.000000" stroke="none" 
	d="
M180.649292,149.620026 
	C182.715057,144.135620 184.158554,138.730881 188.480331,134.901642 
	C189.839066,133.697754 191.238403,132.434479 192.835464,131.625275 
	C196.969528,129.530640 201.248428,129.069519 204.949677,132.429031 
	C208.492386,135.644653 208.352570,139.713745 206.837723,143.920288 
	C204.638489,150.027313 200.195129,153.308334 193.907639,154.210938 
	C191.526505,154.552750 188.963943,154.548508 189.349792,158.014236 
	C189.745316,161.566818 192.363800,162.158737 195.214401,161.869827 
	C200.444824,161.339706 203.823364,157.887360 206.873398,154.019119 
	C212.138412,147.341660 214.322708,139.194107 217.622711,131.576782 
	C218.648911,129.208008 219.183029,126.123611 222.941528,126.872368 
	C226.727966,127.626701 227.286926,130.424744 227.200043,133.700668 
	C227.018936,140.529846 228.066757,147.204285 229.813278,154.298401 
	C233.684158,152.195175 234.588348,148.496353 236.292007,145.424545 
	C236.996933,144.153503 237.739059,143.092377 239.375900,143.726425 
	C240.885223,144.311096 241.090408,145.499771 240.834442,147.000183 
	C239.337479,155.774811 229.090973,165.059860 220.195038,165.665970 
	C217.802032,165.829025 215.549667,165.336563 213.417542,164.309082 
	C212.164032,163.705017 211.109543,162.798813 211.389969,161.227219 
	C211.658951,159.719803 212.880356,159.146271 214.242584,158.798126 
	C221.152496,157.032089 221.518127,156.480698 220.372910,149.588791 
	C220.027115,147.507904 219.655197,145.431351 219.110519,142.286011 
	C216.886932,146.688293 215.253555,150.242905 213.341080,153.640411 
	C209.555756,160.365112 204.577591,165.716599 196.750900,167.833862 
	C188.935440,169.948044 184.460083,168.285538 180.272964,161.178894 
	C176.738983,163.891525 174.330368,167.877213 170.155807,169.793762 
	C166.398865,171.518570 162.758179,172.220932 159.515350,169.045059 
	C156.070023,165.670853 154.709641,161.520233 155.868774,156.720261 
	C156.330322,154.808929 158.018250,154.448578 159.563843,153.765915 
	C164.603531,151.539963 166.371460,147.605240 164.898193,141.761444 
	C160.602646,142.363770 158.299118,145.034821 157.162537,148.956680 
	C155.403122,155.027679 153.738342,161.126129 151.973602,167.195526 
	C151.605682,168.460892 151.225784,169.856750 150.416656,170.831650 
	C148.787811,172.794205 146.417953,173.333069 144.061325,172.581131 
	C140.922089,171.579498 143.090225,168.877151 142.617935,166.969330 
	C137.430359,166.637039 134.279831,170.166336 130.654938,172.957687 
	C123.472946,178.488190 116.909882,177.153763 112.054024,169.002823 
	C107.840759,173.317749 103.717529,177.571014 98.713081,180.856064 
	C96.793251,182.116302 96.803726,184.988678 95.999863,187.161438 
	C93.947899,192.707687 91.639740,197.988159 85.039131,199.705124 
	C81.456215,200.637131 78.638481,199.678009 76.730461,196.819687 
	C74.801079,193.929352 75.190208,190.804657 77.296997,187.984085 
	C79.339676,185.249298 82.026901,183.245712 85.071556,181.857849 
	C88.254257,180.407028 89.596710,177.928650 90.696053,174.756302 
	C93.776093,165.868362 92.930717,155.994659 97.680458,147.552170 
	C98.492378,146.109024 98.948929,144.450760 99.851570,143.077133 
	C101.478760,140.600906 104.057526,140.334030 106.521286,141.252548 
	C109.234863,142.264206 108.008163,144.572906 107.522034,146.403427 
	C105.729012,153.154999 103.827759,159.877747 102.008064,166.622360 
	C101.495895,168.520706 101.123474,170.456772 100.384781,173.703690 
	C106.544792,168.252945 111.017380,163.257477 112.833473,156.232895 
	C114.619423,149.324860 117.340073,142.947189 124.044296,139.292343 
	C128.143295,137.057755 132.364243,136.828079 136.362350,139.448074 
	C140.499222,142.158997 141.063492,146.526443 140.826645,150.935776 
	C140.652100,154.185333 139.905334,157.404144 139.342453,161.103912 
	C143.873505,159.946594 145.767593,156.954483 146.835449,153.383743 
	C149.265915,145.256607 151.522049,137.077454 153.872726,128.926285 
	C154.333176,127.329689 154.796936,125.720253 155.440552,124.193192 
	C156.721954,121.152946 159.516327,120.595589 162.135300,121.295540 
	C165.082153,122.083122 164.068649,124.623802 163.495132,126.730621 
	C162.768417,129.400269 162.086578,132.082153 161.367218,134.828064 
	C163.986511,135.632385 165.473801,133.834793 167.312012,133.350708 
	C171.715942,132.190933 175.256653,134.356216 175.248169,138.889847 
	C175.234558,146.174820 173.276733,152.856842 166.569946,156.875412 
	C163.743225,158.569122 163.154373,160.398224 164.791870,162.941666 
	C166.605286,165.758347 168.985458,164.460663 170.849121,163.090317 
	C175.395218,159.747559 178.275208,155.072388 180.649292,149.620026 
M132.000519,149.585083 
	C131.821365,147.671356 132.432938,145.121582 129.806641,144.649628 
	C127.543114,144.242874 126.173126,146.366379 125.293396,148.032532 
	C122.725861,152.895294 120.629555,158.000336 120.373627,163.593475 
	C120.264671,165.974579 119.812782,169.443832 123.441719,169.124863 
	C126.146133,168.887146 127.995766,166.538330 126.967400,163.181931 
	C126.258469,160.868118 126.960472,158.789276 128.869980,157.402786 
	C131.326523,155.619080 131.903046,153.173264 132.000519,149.585083 
M197.431061,138.356979 
	C192.856491,140.210693 191.459167,143.897049 191.080460,148.553574 
	C197.430618,147.522644 200.122009,143.331436 197.431061,138.356979 
M82.301079,189.776062 
	C81.583504,190.861206 80.590591,191.946381 82.402985,193.172485 
	C84.830559,192.151657 86.042625,190.438965 86.131874,187.740295 
	C84.325317,187.590347 83.604454,188.597763 82.301079,189.776062 
z"/>
<path fill="#000000" opacity="1.000000" stroke="none" 
	d="
M124.770638,120.105484 
	C121.508301,122.784996 118.234947,124.397873 114.419350,122.523804 
	C110.368187,120.534042 109.701141,116.588478 109.939163,112.701408 
	C110.411400,104.989655 112.206734,97.523041 116.199883,90.828842 
	C120.106163,84.280319 125.748466,83.054817 132.124298,87.213554 
	C133.684082,88.230949 134.805984,87.962685 136.243423,87.294685 
	C137.833130,86.555939 139.237793,85.045036 141.936813,86.014717 
	C141.036774,95.464912 135.969910,104.240196 135.614792,113.945000 
	C138.934723,114.722649 140.072861,112.523926 141.267746,110.935081 
	C144.476135,106.668900 147.056976,102.035034 148.790710,96.934288 
	C149.696671,94.268913 150.704025,91.576569 152.109116,89.153618 
	C156.630386,81.357140 160.630081,80.024384 169.156143,83.278770 
	C171.492706,80.768852 171.591370,77.304352 172.687851,74.264046 
	C173.307312,72.546341 173.677612,70.721138 174.447906,69.079369 
	C175.806839,66.182961 178.546555,66.359947 180.956161,66.959122 
	C183.877136,67.685448 182.767746,70.015373 182.245071,71.883339 
	C179.152115,82.936874 176.030777,93.982491 172.902161,105.026001 
	C172.356674,106.951485 171.748322,108.853935 173.010376,110.801392 
	C175.467484,111.319183 176.730469,109.674301 177.796310,108.015053 
	C179.591888,105.219772 181.229156,102.320656 182.875107,99.432220 
	C183.792450,97.822372 184.578674,95.779854 186.915573,96.876160 
	C188.974915,97.842247 188.245941,99.786613 187.486572,101.231880 
	C184.029831,107.810959 181.300858,115.091698 173.159653,117.542618 
	C171.911835,117.918282 170.060699,118.612206 169.344864,118.056305 
	C164.649765,114.410202 161.108887,117.192459 156.939041,119.320404 
	C151.886246,121.898926 148.987198,118.102745 146.668701,114.125069 
	C144.183060,114.675957 143.338058,116.937714 141.676910,118.189247 
	C137.697510,121.187378 133.623016,123.087128 128.992126,119.577934 
	C127.493637,118.442406 126.274361,118.641441 124.770638,120.105484 
M162.415573,107.774422 
	C165.126526,103.827141 165.132843,98.942101 166.954575,94.693329 
	C167.882950,92.528114 167.669662,90.695251 165.500153,89.633118 
	C163.229294,88.521339 161.726364,89.982903 160.544189,91.725067 
	C157.791260,95.782013 156.428619,100.400887 155.516998,105.131828 
	C155.120682,107.188530 154.581161,109.848274 156.785095,111.060890 
	C159.304840,112.447266 160.422791,109.663170 162.415573,107.774422 
M122.045433,114.523537 
	C129.371613,110.136086 128.967453,102.243843 130.399796,95.344147 
	C130.936584,92.758354 127.770737,91.699295 125.482925,93.465469 
	C121.749817,96.347404 117.865746,108.277748 119.235687,112.694763 
	C119.552254,113.715454 120.215591,114.395615 122.045433,114.523537 
z"/>
<path fill="#000000" opacity="1.000000" stroke="none" 
	d="
M73.380943,80.343460 
	C68.051361,85.551704 65.181297,91.301598 67.611725,98.476158 
	C68.749680,101.835373 67.340591,103.881248 64.605331,104.755981 
	C61.452042,105.764389 60.778717,102.755531 60.066101,100.662651 
	C55.061539,85.964806 66.767975,69.994476 83.370010,68.761543 
	C96.807777,67.763603 105.931976,74.886833 108.448074,88.339943 
	C111.350410,103.858231 104.318672,121.621780 92.960541,127.716415 
	C86.946518,130.943466 80.848022,131.459229 74.853256,128.101440 
	C71.939308,126.469269 69.692566,126.649773 67.138947,128.576859 
	C64.858139,130.298065 62.150604,131.209793 59.329975,131.727356 
	C54.264000,132.656952 50.052364,131.275070 47.138359,126.918900 
	C44.674709,123.235962 45.391571,119.449112 47.889183,116.212807 
	C50.890949,112.323227 55.122181,111.172676 59.953583,112.039597 
	C62.654308,112.524200 65.249962,115.651482 67.801804,113.845848 
	C70.555550,111.897354 70.548264,107.946144 71.517296,104.811020 
	C73.135712,99.574966 74.389893,94.227509 75.924644,88.964043 
	C77.086288,84.980179 79.355743,81.761078 83.156311,79.838852 
	C84.559021,79.129410 86.065834,78.850327 87.327927,80.108116 
	C88.682442,81.458000 88.848549,83.165901 87.828583,84.685143 
	C81.152153,94.629723 81.274742,106.942314 76.321770,117.476570 
	C75.273331,119.706467 76.316315,120.815536 78.336128,121.657524 
	C82.996910,123.600449 88.909912,122.044678 92.640846,117.488098 
	C100.196304,108.260612 101.602234,97.561432 98.923660,86.390259 
	C96.950333,78.160370 88.919098,74.375946 80.368881,76.842873 
	C77.953194,77.539848 75.712677,78.637947 73.380943,80.343460 
M58.770954,118.878510 
	C56.415730,118.269119 54.490150,118.839668 53.577808,121.208084 
	C53.084667,122.488274 54.036648,123.454575 55.174156,123.858322 
	C58.113434,124.901604 60.538914,124.164398 62.306740,121.662918 
	C61.940281,119.908653 60.642696,119.542442 58.770954,118.878510 
z"/>
<path fill="#000000" opacity="1.000000" stroke="none" 
	d="
M325.282379,208.643250 
	C313.492523,211.673721 310.282166,210.505157 303.169006,201.033295 
	C301.586182,198.925613 300.154968,196.665176 297.439972,195.651215 
	C295.799896,195.038712 294.459167,193.750885 295.304840,191.781311 
	C296.261078,189.554245 298.344757,189.179871 300.387146,189.845993 
	C314.217651,194.356705 327.572601,190.915146 340.938141,187.551422 
	C342.060425,187.268967 343.114288,186.710281 344.238403,186.440079 
	C346.413483,185.917236 348.443542,186.385696 349.162537,188.647079 
	C349.920624,191.031357 347.997467,191.843414 346.123505,192.297287 
	C342.927185,193.071457 341.267426,195.670105 339.327515,197.910858 
	C335.473450,202.362701 331.202026,206.246246 325.282379,208.643250 
M329.903351,197.614792 
	C331.242493,196.520081 333.075409,195.901016 333.693115,193.566132 
	C325.450500,195.304291 317.295013,195.759308 309.008667,196.609970 
	C310.226074,199.937378 312.659698,200.847183 315.082672,201.215714 
	C320.173126,201.989960 324.920319,200.651917 329.903351,197.614792 
z"/>
<path fill="#000000" opacity="1.000000" stroke="none" 
	d="
M329.407288,127.466370 
	C339.384613,123.627647 348.948212,121.509026 358.416718,127.705421 
	C360.602081,129.135544 362.910919,130.440063 363.864929,133.531647 
	C362.929413,133.658646 362.304321,133.897980 361.739868,133.797302 
	C350.934601,131.870041 340.580170,133.292892 330.578766,137.760864 
	C328.796967,138.556854 326.709625,139.442932 325.035950,137.565369 
	C323.290833,135.607697 322.687103,133.333176 323.411041,130.636673 
	C324.254639,127.494484 326.871521,128.073212 329.407288,127.466370 
z"/>
<path fill="#000000" opacity="1.000000" stroke="none" 
	d="
M269.675354,118.923477 
	C271.189362,111.655151 272.262207,104.688614 275.287048,98.320160 
	C276.649902,95.450821 278.236633,92.264282 283.284546,93.173637 
	C279.396881,102.863304 276.343414,112.432983 275.263184,122.513947 
	C274.187439,132.553177 277.974915,142.323669 276.760040,152.432755 
	C272.464417,141.773590 266.595581,131.530243 269.675354,118.923477 
z"/>
<path fill="#000000" opacity="1.000000" stroke="none" 
	d="
M299.227020,153.091217 
	C297.628571,155.862000 296.144165,159.142059 292.816010,157.773911 
	C287.431763,155.560532 289.231903,150.388596 289.439514,146.174759 
	C286.868866,145.460571 286.113922,148.568878 283.136688,148.106216 
	C283.279236,143.721313 285.007172,140.366989 288.873932,138.238571 
	C292.348236,136.326172 297.422913,137.583984 300.103546,140.768005 
	C303.185699,144.428955 302.989258,147.720352 299.227020,153.091217 
z"/>
<path fill="#000000" opacity="1.000000" stroke="none" 
	d="
M301.239746,131.580627 
	C294.958771,127.078812 288.606171,126.178047 281.919800,130.066254 
	C280.628113,122.137062 285.635223,116.671974 292.451233,117.650246 
	C296.898834,118.288597 300.335266,121.093613 303.702942,123.664429 
	C306.275269,125.628120 305.124390,129.162857 301.239746,131.580627 
z"/>
<path fill="#000000" opacity="1.000000" stroke="none" 
	d="
M310.272827,147.313904 
	C312.659241,156.039566 313.246124,164.035782 306.358826,170.916245 
	C303.820312,173.452240 304.633362,176.381531 306.817810,178.998947 
	C308.017517,180.436478 310.133423,181.520615 309.130951,184.000488 
	C301.913727,183.922287 296.152344,175.886719 300.376068,171.097473 
	C306.377625,164.292389 308.633453,156.911987 307.865875,148.185059 
	C307.723663,146.568253 307.831604,144.507996 310.272827,147.313904 
z"/>
<path fill="#000000" opacity="1.000000" stroke="none" 
	d="
M401.158691,151.104980 
	C397.595245,151.672943 396.048553,153.894516 394.982452,156.580521 
	C400.554443,164.360855 398.779510,170.918228 389.937347,172.955551 
	C391.896027,168.313400 397.519501,163.046829 387.878204,160.557953 
	C389.534485,154.448181 392.227539,149.562119 398.103149,147.183197 
	C401.093384,145.972504 403.499481,147.193176 405.183380,149.856949 
	C404.220306,151.675278 402.693573,150.740494 401.158691,151.104980 
z"/>
<path fill="#000000" opacity="1.000000" stroke="none" 
	d="
M336.275879,151.281387 
	C330.195648,153.732132 328.920349,153.231277 327.554718,147.664032 
	C330.791687,148.148346 333.201019,146.288315 335.893921,145.124573 
	C340.520111,143.125366 345.267761,142.752777 349.748260,145.478928 
	C351.990692,146.843323 354.189423,148.560104 352.615875,152.472946 
	C347.411591,150.270340 342.149261,147.689423 336.275879,151.281387 
z"/>
<path fill="#000000" opacity="1.000000" stroke="none" 
	d="
M111.806335,134.434845 
	C111.558228,134.934814 111.473091,135.078690 111.372017,135.210342 
	C109.338493,137.859268 106.787277,138.553452 103.983971,136.683563 
	C102.013718,135.369339 101.225166,133.209717 102.230835,130.978027 
	C103.204781,128.816696 105.380913,127.723099 107.577469,128.058197 
	C110.747879,128.541855 112.573524,130.557175 111.806335,134.434845 
z"/>
<path fill="#000000" opacity="1.000000" stroke="none" 
	d="
M325.766663,213.945496 
	C325.722626,216.718567 322.369171,219.386688 318.239502,219.951828 
	C315.125427,220.377960 312.300842,219.875977 310.862305,215.502823 
	C315.894562,214.944229 320.665558,214.414642 325.766663,213.945496 
z"/>
<path fill="#000000" opacity="1.000000" stroke="none" 
	d="
M356.090637,185.199036 
	C356.294983,187.057693 356.431763,188.560654 354.505829,189.385681 
	C351.561035,187.181076 348.602570,184.966217 345.613861,182.728729 
	C349.788696,178.713150 352.565399,179.331512 356.090637,185.199036 
z"/>
<path fill="#000000" opacity="1.000000" stroke="none" 
	d="
M323.996948,180.338257 
	C322.105835,181.327057 320.449707,182.083939 318.740845,182.692642 
	C317.494232,183.136719 315.999146,183.659393 315.502625,181.745026 
	C315.102234,180.201401 316.146606,179.354889 317.411102,178.657608 
	C321.359070,176.480591 323.465088,176.884186 323.996948,180.338257 
z"/>
<path fill="#000000" opacity="1.000000" stroke="none" 
	d="
M357.445190,151.476105 
	C358.791168,147.710556 359.934235,147.092941 364.679901,147.161072 
	C363.854858,151.990936 362.212830,153.067352 357.445190,151.476105 
z"/>
</svg>